<?xml version="1.0" standalone="no"?>
<!DOCTYPE svg PUBLIC "-//W3C//DTD SVG 20010904//EN"
 "http://www.w3.org/TR/2001/REC-SVG-20010904/DTD/svg10.dtd">
<svg version="1.0" xmlns="http://www.w3.org/2000/svg"
 width="1500.000000pt" height="967.000000pt" viewBox="0 0 1500.000000 967.000000"
 preserveAspectRatio="xMidYMid meet">

<g transform="translate(0.000000,967.000000) scale(0.100000,-0.100000)"
fill="#000000" stroke="none">
<path d="M11187 9656 c-8 -8 -732 -912 -1610 -2009 -904 -1128 -1597 -2002
-1597 -2013 0 -11 5 -25 12 -32 9 -9 289 -12 1197 -12 1175 0 1185 0 1227 21
36 17 105 97 421 491 208 259 388 489 401 511 l22 40 0 1498 c0 1471 0 1498
-19 1509 -26 13 -37 13 -54 -4z"/>
<path d="M3761 9641 c-8 -14 -11 -466 -11 -1488 1 -1358 2 -1472 18 -1516 25
-70 2439 -3088 2491 -3114 34 -17 101 -18 1228 -21 1076 -2 1193 -1 1207 14 9
8 16 21 16 28 0 7 -1098 1385 -2440 3062 -2151 2687 -2444 3049 -2469 3052
-21 2 -33 -2 -40 -17z"/>
<path d="M5698 2145 c-219 -36 -419 -137 -580 -293 -539 -521 -385 -1423 296
-1742 235 -111 523 -131 771 -53 168 52 315 141 441 267 219 219 326 497 311
810 -26 562 -469 1000 -1032 1021 -77 3 -151 -1 -207 -10z m332 -371 c350 -78
586 -458 516 -828 -63 -328 -356 -576 -682 -576 -192 0 -410 106 -529 258
-109 138 -159 283 -158 457 0 130 18 206 73 320 142 293 454 441 780 369z"/>
<path d="M16 2094 c-14 -14 -16 -119 -16 -1005 0 -664 3 -997 10 -1010 10 -18
23 -19 185 -19 l175 0 34 33 c66 62 1580 1971 1580 1991 1 20 -5 21 -194 24
-118 2 -209 -1 -232 -8 -33 -9 -98 -87 -605 -721 l-568 -711 -3 709 c-2 651
-3 709 -19 721 -12 8 -64 12 -174 12 -130 0 -160 -3 -173 -16z"/>
<path d="M2688 2096 c-26 -7 -55 -19 -64 -27 -37 -30 -1584 -1975 -1584 -1991
0 -17 17 -18 218 -18 151 1 224 4 239 13 12 7 143 165 292 352 149 187 275
341 280 343 4 1 131 -150 281 -338 150 -187 282 -347 293 -355 28 -20 356 -22
375 -3 9 9 12 248 12 1015 0 981 0 1003 -19 1013 -27 14 -266 11 -323 -4z
m-40 -1241 l-3 -224 -182 226 -181 226 181 226 182 226 3 -228 c1 -125 1 -328
0 -452z"/>
<path d="M7306 2094 c-14 -14 -16 -119 -16 -1013 0 -762 3 -1000 12 -1009 17
-17 339 -17 356 0 9 9 12 209 12 840 l0 828 440 0 c242 0 440 -2 440 -5 0 -3
-135 -174 -301 -381 -165 -207 -299 -382 -297 -389 4 -20 685 -872 711 -890
31 -21 467 -23 467 -1 0 8 -155 211 -345 452 -190 241 -345 443 -345 449 0 5
113 151 250 323 l250 313 0 239 c0 226 -1 240 -19 250 -13 7 -284 10 -810 10
-704 0 -791 -2 -805 -16z"/>
<path d="M9476 2094 c-14 -14 -16 -119 -16 -1013 0 -762 3 -1000 12 -1009 8
-8 63 -12 184 -12 156 0 174 2 197 20 14 11 146 171 293 355 147 184 271 335
275 335 4 0 129 -154 279 -343 150 -188 283 -348 296 -355 29 -15 455 -13 461
3 1 6 -354 458 -791 1005 -557 698 -804 1000 -828 1012 -47 25 -338 27 -362 2z
m519 -741 c77 -97 157 -198 177 -224 l38 -46 -176 -219 c-97 -121 -180 -223
-185 -229 -5 -5 -9 173 -9 443 0 249 3 452 8 452 4 -1 70 -80 147 -177z"/>
<path d="M11188 2099 c-17 -9 -18 -44 -18 -505 0 -337 3 -502 11 -516 27 -50
333 -423 348 -423 14 0 17 42 21 419 l5 420 563 -705 c310 -387 575 -710 588
-717 17 -9 71 -12 196 -10 l173 3 3 1014 c2 805 0 1016 -10 1023 -22 13 -332
10 -346 -4 -9 -9 -12 -182 -12 -715 0 -387 -4 -703 -8 -703 -5 0 -262 317
-571 704 -432 540 -571 707 -594 715 -38 14 -326 14 -349 0z"/>
<path d="M13371 2096 c-8 -9 -11 -65 -9 -177 l3 -164 283 -3 282 -2 0 -829 c0
-741 2 -831 16 -845 13 -13 43 -16 170 -16 88 0 164 4 175 10 19 10 19 30 19
845 l0 835 345 0 c342 0 345 0 345 21 0 32 -234 315 -272 328 -21 8 -238 11
-688 11 -548 0 -659 -2 -669 -14z"/>
<path d="M3507 2093 c-4 -3 -7 -457 -7 -1008 0 -765 3 -1004 12 -1013 16 -16
949 -17 979 -2 26 14 261 308 263 329 1 14 -39 16 -436 19 l-438 2 0 828 c0
631 -3 831 -12 840 -13 13 -349 18 -361 5z"/>
</g>
</svg>
